<mxfile host="app.diagrams.net" modified="2023-03-29T19:31:16.696Z" agent="Mozilla/5.0 (Windows NT 10.0; Win64; x64) AppleWebKit/537.36 (KHTML, like Gecko) Chrome/111.0.0.0 Safari/537.36" etag="wUD1G-Mox1LnZfklnN2s" version="21.1.2" type="github">
  <diagram name="Page-1" id="y4GrPVPC4EGu2eUjYkA1">
    <mxGraphModel dx="1050" dy="541" grid="1" gridSize="10" guides="1" tooltips="1" connect="1" arrows="1" fold="1" page="1" pageScale="1" pageWidth="827" pageHeight="1169" math="0" shadow="0">
      <root>
        <mxCell id="0" />
        <mxCell id="1" parent="0" />
        <mxCell id="KZc5VNdmo1UYbILFe8fp-1" value="Product" style="swimlane;fontStyle=1;align=center;verticalAlign=top;childLayout=stackLayout;horizontal=1;startSize=26;horizontalStack=0;resizeParent=1;resizeParentMax=0;resizeLast=0;collapsible=1;marginBottom=0;whiteSpace=wrap;html=1;" parent="1" vertex="1">
          <mxGeometry x="627" y="660" width="200" height="308" as="geometry" />
        </mxCell>
        <mxCell id="KZc5VNdmo1UYbILFe8fp-2" value="- id : int&lt;br&gt;- name : string&lt;br&gt;- category : string&lt;br&gt;- buy price : int&lt;br&gt;- selling price : int&lt;br&gt;- expire date : Date&lt;br&gt;- number of items available&amp;nbsp;" style="text;strokeColor=none;fillColor=none;align=left;verticalAlign=top;spacingLeft=4;spacingRight=4;overflow=hidden;rotatable=0;points=[[0,0.5],[1,0.5]];portConstraint=eastwest;whiteSpace=wrap;html=1;" parent="KZc5VNdmo1UYbILFe8fp-1" vertex="1">
          <mxGeometry y="26" width="200" height="124" as="geometry" />
        </mxCell>
        <mxCell id="KZc5VNdmo1UYbILFe8fp-3" value="" style="line;strokeWidth=1;fillColor=none;align=left;verticalAlign=middle;spacingTop=-1;spacingLeft=3;spacingRight=3;rotatable=0;labelPosition=right;points=[];portConstraint=eastwest;strokeColor=inherit;" parent="KZc5VNdmo1UYbILFe8fp-1" vertex="1">
          <mxGeometry y="150" width="200" height="8" as="geometry" />
        </mxCell>
        <mxCell id="KZc5VNdmo1UYbILFe8fp-4" value="+ Product() : type&lt;br&gt;+ Product(all values) :&lt;br&gt;+ Product(all except expire date) :&amp;nbsp;&amp;nbsp;&lt;br&gt;+ setters &amp;amp; getters" style="text;strokeColor=none;fillColor=none;align=left;verticalAlign=top;spacingLeft=4;spacingRight=4;overflow=hidden;rotatable=0;points=[[0,0.5],[1,0.5]];portConstraint=eastwest;whiteSpace=wrap;html=1;" parent="KZc5VNdmo1UYbILFe8fp-1" vertex="1">
          <mxGeometry y="158" width="200" height="72" as="geometry" />
        </mxCell>
        <mxCell id="Bt4NCkmI19mg6CArcpXU-9" value="+ Weekly_topIteams(): attribute" style="text;strokeColor=none;fillColor=none;align=left;verticalAlign=top;spacingLeft=4;spacingRight=4;overflow=hidden;rotatable=0;points=[[0,0.5],[1,0.5]];portConstraint=eastwest;whiteSpace=wrap;html=1;" vertex="1" parent="KZc5VNdmo1UYbILFe8fp-1">
          <mxGeometry y="230" width="200" height="26" as="geometry" />
        </mxCell>
        <mxCell id="Bt4NCkmI19mg6CArcpXU-3" value="+ Decrease_iteamNo(): int" style="text;strokeColor=none;fillColor=none;align=left;verticalAlign=top;spacingLeft=4;spacingRight=4;overflow=hidden;rotatable=0;points=[[0,0.5],[1,0.5]];portConstraint=eastwest;whiteSpace=wrap;html=1;" vertex="1" parent="KZc5VNdmo1UYbILFe8fp-1">
          <mxGeometry y="256" width="200" height="26" as="geometry" />
        </mxCell>
        <mxCell id="Bt4NCkmI19mg6CArcpXU-7" value="+ Weekly_discount():double&amp;nbsp;" style="text;strokeColor=none;fillColor=none;align=left;verticalAlign=top;spacingLeft=4;spacingRight=4;overflow=hidden;rotatable=0;points=[[0,0.5],[1,0.5]];portConstraint=eastwest;whiteSpace=wrap;html=1;" vertex="1" parent="KZc5VNdmo1UYbILFe8fp-1">
          <mxGeometry y="282" width="200" height="26" as="geometry" />
        </mxCell>
        <mxCell id="AF1ABx0VTaV4YIEbs9uG-1" style="edgeStyle=orthogonalEdgeStyle;rounded=0;orthogonalLoop=1;jettySize=auto;html=1;entryX=0.45;entryY=1;entryDx=0;entryDy=0;entryPerimeter=0;endArrow=block;endFill=0;" parent="1" source="KZc5VNdmo1UYbILFe8fp-10" target="tTnqDCIk3qNYDCSJdOzN-4" edge="1">
          <mxGeometry relative="1" as="geometry" />
        </mxCell>
        <mxCell id="KZc5VNdmo1UYbILFe8fp-10" value="Client" style="swimlane;fontStyle=1;align=center;verticalAlign=top;childLayout=stackLayout;horizontal=1;startSize=26;horizontalStack=0;resizeParent=1;resizeParentMax=0;resizeLast=0;collapsible=1;marginBottom=0;whiteSpace=wrap;html=1;" parent="1" vertex="1">
          <mxGeometry x="370" y="340" width="200" height="212" as="geometry" />
        </mxCell>
        <mxCell id="KZc5VNdmo1UYbILFe8fp-11" value="- home_number : int&lt;br&gt;- paid : int&lt;br&gt;- isGolden : boolean&lt;br&gt;- yearsSubcribed : int" style="text;strokeColor=none;fillColor=none;align=left;verticalAlign=top;spacingLeft=4;spacingRight=4;overflow=hidden;rotatable=0;points=[[0,0.5],[1,0.5]];portConstraint=eastwest;whiteSpace=wrap;html=1;" parent="KZc5VNdmo1UYbILFe8fp-10" vertex="1">
          <mxGeometry y="26" width="200" height="64" as="geometry" />
        </mxCell>
        <mxCell id="KZc5VNdmo1UYbILFe8fp-12" value="" style="line;strokeWidth=1;fillColor=none;align=left;verticalAlign=middle;spacingTop=-1;spacingLeft=3;spacingRight=3;rotatable=0;labelPosition=right;points=[];portConstraint=eastwest;strokeColor=inherit;" parent="KZc5VNdmo1UYbILFe8fp-10" vertex="1">
          <mxGeometry y="90" width="200" height="8" as="geometry" />
        </mxCell>
        <mxCell id="KZc5VNdmo1UYbILFe8fp-13" value="+ setters &amp;amp; getters&lt;br&gt;+ addPayment(int) : void" style="text;strokeColor=none;fillColor=none;align=left;verticalAlign=top;spacingLeft=4;spacingRight=4;overflow=hidden;rotatable=0;points=[[0,0.5],[1,0.5]];portConstraint=eastwest;whiteSpace=wrap;html=1;" parent="KZc5VNdmo1UYbILFe8fp-10" vertex="1">
          <mxGeometry y="98" width="200" height="62" as="geometry" />
        </mxCell>
        <mxCell id="Bt4NCkmI19mg6CArcpXU-5" value="+ Check_years(): int" style="text;strokeColor=none;fillColor=none;align=left;verticalAlign=top;spacingLeft=4;spacingRight=4;overflow=hidden;rotatable=0;points=[[0,0.5],[1,0.5]];portConstraint=eastwest;whiteSpace=wrap;html=1;" vertex="1" parent="KZc5VNdmo1UYbILFe8fp-10">
          <mxGeometry y="160" width="200" height="26" as="geometry" />
        </mxCell>
        <mxCell id="Bt4NCkmI19mg6CArcpXU-4" value="+ Discount_4000(): double" style="text;strokeColor=none;fillColor=none;align=left;verticalAlign=top;spacingLeft=4;spacingRight=4;overflow=hidden;rotatable=0;points=[[0,0.5],[1,0.5]];portConstraint=eastwest;whiteSpace=wrap;html=1;" vertex="1" parent="KZc5VNdmo1UYbILFe8fp-10">
          <mxGeometry y="186" width="200" height="26" as="geometry" />
        </mxCell>
        <mxCell id="KZc5VNdmo1UYbILFe8fp-14" value="Address" style="swimlane;fontStyle=1;align=center;verticalAlign=top;childLayout=stackLayout;horizontal=1;startSize=26;horizontalStack=0;resizeParent=1;resizeParentMax=0;resizeLast=0;collapsible=1;marginBottom=0;whiteSpace=wrap;html=1;" parent="1" vertex="1">
          <mxGeometry x="830" y="80" width="200" height="216" as="geometry" />
        </mxCell>
        <mxCell id="KZc5VNdmo1UYbILFe8fp-15" value="- town : string&lt;br&gt;- homeNumber: int&lt;br&gt;- street : String" style="text;strokeColor=none;fillColor=none;align=left;verticalAlign=top;spacingLeft=4;spacingRight=4;overflow=hidden;rotatable=0;points=[[0,0.5],[1,0.5]];portConstraint=eastwest;whiteSpace=wrap;html=1;" parent="KZc5VNdmo1UYbILFe8fp-14" vertex="1">
          <mxGeometry y="26" width="200" height="64" as="geometry" />
        </mxCell>
        <mxCell id="KZc5VNdmo1UYbILFe8fp-16" value="" style="line;strokeWidth=1;fillColor=none;align=left;verticalAlign=middle;spacingTop=-1;spacingLeft=3;spacingRight=3;rotatable=0;labelPosition=right;points=[];portConstraint=eastwest;strokeColor=inherit;" parent="KZc5VNdmo1UYbILFe8fp-14" vertex="1">
          <mxGeometry y="90" width="200" height="8" as="geometry" />
        </mxCell>
        <mxCell id="KZc5VNdmo1UYbILFe8fp-17" value="+ setTown(string) : void&lt;br&gt;+ setBlock(int) : void&lt;br&gt;+ setStreet(int) : void&lt;br&gt;+ getTown() : string&lt;br&gt;+ getBlock() : int&lt;br&gt;+ getStreet() : int" style="text;strokeColor=none;fillColor=none;align=left;verticalAlign=top;spacingLeft=4;spacingRight=4;overflow=hidden;rotatable=0;points=[[0,0.5],[1,0.5]];portConstraint=eastwest;whiteSpace=wrap;html=1;" parent="KZc5VNdmo1UYbILFe8fp-14" vertex="1">
          <mxGeometry y="98" width="200" height="118" as="geometry" />
        </mxCell>
        <mxCell id="KZc5VNdmo1UYbILFe8fp-22" value="GoldenClient" style="swimlane;fontStyle=1;align=center;verticalAlign=top;childLayout=stackLayout;horizontal=1;startSize=26;horizontalStack=0;resizeParent=1;resizeParentMax=0;resizeLast=0;collapsible=1;marginBottom=0;whiteSpace=wrap;html=1;" parent="1" vertex="1">
          <mxGeometry x="370" y="640" width="180" height="146" as="geometry" />
        </mxCell>
        <mxCell id="KZc5VNdmo1UYbILFe8fp-23" value="- birthday : Date&lt;br&gt;- favorite_product&amp;nbsp; : Product" style="text;strokeColor=none;fillColor=none;align=left;verticalAlign=top;spacingLeft=4;spacingRight=4;overflow=hidden;rotatable=0;points=[[0,0.5],[1,0.5]];portConstraint=eastwest;whiteSpace=wrap;html=1;" parent="KZc5VNdmo1UYbILFe8fp-22" vertex="1">
          <mxGeometry y="26" width="180" height="44" as="geometry" />
        </mxCell>
        <mxCell id="KZc5VNdmo1UYbILFe8fp-24" value="" style="line;strokeWidth=1;fillColor=none;align=left;verticalAlign=middle;spacingTop=-1;spacingLeft=3;spacingRight=3;rotatable=0;labelPosition=right;points=[];portConstraint=eastwest;strokeColor=inherit;" parent="KZc5VNdmo1UYbILFe8fp-22" vertex="1">
          <mxGeometry y="70" width="180" height="8" as="geometry" />
        </mxCell>
        <mxCell id="KZc5VNdmo1UYbILFe8fp-25" value="+ setters &amp;amp; getters&lt;br&gt;+ addPayment(int) : void&lt;br&gt;+favDiscount() : double&lt;br&gt;+birthDiscount(): double" style="text;strokeColor=none;fillColor=none;align=left;verticalAlign=top;spacingLeft=4;spacingRight=4;overflow=hidden;rotatable=0;points=[[0,0.5],[1,0.5]];portConstraint=eastwest;whiteSpace=wrap;html=1;" parent="KZc5VNdmo1UYbILFe8fp-22" vertex="1">
          <mxGeometry y="78" width="180" height="68" as="geometry" />
        </mxCell>
        <mxCell id="KZc5VNdmo1UYbILFe8fp-27" value="" style="endArrow=blockThin;html=1;edgeStyle=orthogonalEdgeStyle;rounded=0;endFill=0;exitX=0.5;exitY=0;exitDx=0;exitDy=0;entryX=0.444;entryY=1.038;entryDx=0;entryDy=0;entryPerimeter=0;" parent="1" source="KZc5VNdmo1UYbILFe8fp-22" edge="1" target="Bt4NCkmI19mg6CArcpXU-4">
          <mxGeometry relative="1" as="geometry">
            <mxPoint x="600" y="600" as="sourcePoint" />
            <mxPoint x="460" y="610" as="targetPoint" />
            <Array as="points">
              <mxPoint x="459" y="640" />
            </Array>
          </mxGeometry>
        </mxCell>
        <mxCell id="KZc5VNdmo1UYbILFe8fp-30" value="Bill" style="swimlane;fontStyle=1;align=center;verticalAlign=top;childLayout=stackLayout;horizontal=1;startSize=26;horizontalStack=0;resizeParent=1;resizeParentMax=0;resizeLast=0;collapsible=1;marginBottom=0;whiteSpace=wrap;html=1;" parent="1" vertex="1">
          <mxGeometry x="1141" y="680" width="200" height="206" as="geometry" />
        </mxCell>
        <mxCell id="KZc5VNdmo1UYbILFe8fp-31" value="- date : Date&lt;br&gt;- sold_product : arraylist&lt;br&gt;- initial_price : int&lt;br&gt;- final_price : int&lt;br&gt;- staff : Staff&lt;br&gt;- Sale_point : int" style="text;strokeColor=none;fillColor=none;align=left;verticalAlign=top;spacingLeft=4;spacingRight=4;overflow=hidden;rotatable=0;points=[[0,0.5],[1,0.5]];portConstraint=eastwest;whiteSpace=wrap;html=1;" parent="KZc5VNdmo1UYbILFe8fp-30" vertex="1">
          <mxGeometry y="26" width="200" height="94" as="geometry" />
        </mxCell>
        <mxCell id="KZc5VNdmo1UYbILFe8fp-32" value="" style="line;strokeWidth=1;fillColor=none;align=left;verticalAlign=middle;spacingTop=-1;spacingLeft=3;spacingRight=3;rotatable=0;labelPosition=right;points=[];portConstraint=eastwest;strokeColor=inherit;" parent="KZc5VNdmo1UYbILFe8fp-30" vertex="1">
          <mxGeometry y="120" width="200" height="8" as="geometry" />
        </mxCell>
        <mxCell id="KZc5VNdmo1UYbILFe8fp-33" value="+ Bill(int , arraylist, int) :&amp;nbsp;&lt;br&gt;+ getFinalPrice() : int" style="text;strokeColor=none;fillColor=none;align=left;verticalAlign=top;spacingLeft=4;spacingRight=4;overflow=hidden;rotatable=0;points=[[0,0.5],[1,0.5]];portConstraint=eastwest;whiteSpace=wrap;html=1;" parent="KZc5VNdmo1UYbILFe8fp-30" vertex="1">
          <mxGeometry y="128" width="200" height="52" as="geometry" />
        </mxCell>
        <mxCell id="Bt4NCkmI19mg6CArcpXU-8" value="+ Print_bill(): attribute" style="text;strokeColor=none;fillColor=none;align=left;verticalAlign=top;spacingLeft=4;spacingRight=4;overflow=hidden;rotatable=0;points=[[0,0.5],[1,0.5]];portConstraint=eastwest;whiteSpace=wrap;html=1;" vertex="1" parent="KZc5VNdmo1UYbILFe8fp-30">
          <mxGeometry y="180" width="200" height="26" as="geometry" />
        </mxCell>
        <mxCell id="AF1ABx0VTaV4YIEbs9uG-2" style="edgeStyle=orthogonalEdgeStyle;rounded=0;orthogonalLoop=1;jettySize=auto;html=1;entryX=0.45;entryY=1;entryDx=0;entryDy=0;entryPerimeter=0;endArrow=block;endFill=0;" parent="1" source="KZc5VNdmo1UYbILFe8fp-34" target="tTnqDCIk3qNYDCSJdOzN-4" edge="1">
          <mxGeometry relative="1" as="geometry" />
        </mxCell>
        <mxCell id="KZc5VNdmo1UYbILFe8fp-34" value="Staff" style="swimlane;fontStyle=1;align=center;verticalAlign=top;childLayout=stackLayout;horizontal=1;startSize=26;horizontalStack=0;resizeParent=1;resizeParentMax=0;resizeLast=0;collapsible=1;marginBottom=0;whiteSpace=wrap;html=1;" parent="1" vertex="1">
          <mxGeometry x="694" y="340" width="140" height="151" as="geometry" />
        </mxCell>
        <mxCell id="KZc5VNdmo1UYbILFe8fp-35" value="- salary : int&lt;br&gt;- pointOfSaleId : int" style="text;strokeColor=none;fillColor=none;align=left;verticalAlign=top;spacingLeft=4;spacingRight=4;overflow=hidden;rotatable=0;points=[[0,0.5],[1,0.5]];portConstraint=eastwest;whiteSpace=wrap;html=1;" parent="KZc5VNdmo1UYbILFe8fp-34" vertex="1">
          <mxGeometry y="26" width="140" height="44" as="geometry" />
        </mxCell>
        <mxCell id="KZc5VNdmo1UYbILFe8fp-36" value="" style="line;strokeWidth=1;fillColor=none;align=left;verticalAlign=middle;spacingTop=-1;spacingLeft=3;spacingRight=3;rotatable=0;labelPosition=right;points=[];portConstraint=eastwest;strokeColor=inherit;" parent="KZc5VNdmo1UYbILFe8fp-34" vertex="1">
          <mxGeometry y="70" width="140" height="8" as="geometry" />
        </mxCell>
        <mxCell id="KZc5VNdmo1UYbILFe8fp-37" value="+ setSalary(int) : void&lt;br&gt;+ getSalary() : int&lt;br&gt;" style="text;strokeColor=none;fillColor=none;align=left;verticalAlign=top;spacingLeft=4;spacingRight=4;overflow=hidden;rotatable=0;points=[[0,0.5],[1,0.5]];portConstraint=eastwest;whiteSpace=wrap;html=1;" parent="KZc5VNdmo1UYbILFe8fp-34" vertex="1">
          <mxGeometry y="78" width="140" height="42" as="geometry" />
        </mxCell>
        <mxCell id="Bt4NCkmI19mg6CArcpXU-6" value="+ Bouns_salary(): int&amp;nbsp;" style="text;strokeColor=none;fillColor=none;align=left;verticalAlign=top;spacingLeft=4;spacingRight=4;overflow=hidden;rotatable=0;points=[[0,0.5],[1,0.5]];portConstraint=eastwest;whiteSpace=wrap;html=1;" vertex="1" parent="KZc5VNdmo1UYbILFe8fp-34">
          <mxGeometry y="120" width="140" height="31" as="geometry" />
        </mxCell>
        <mxCell id="tTnqDCIk3qNYDCSJdOzN-1" value="Person" style="swimlane;fontStyle=1;align=center;verticalAlign=top;childLayout=stackLayout;horizontal=1;startSize=26;horizontalStack=0;resizeParent=1;resizeParentMax=0;resizeLast=0;collapsible=1;marginBottom=0;whiteSpace=wrap;html=1;" parent="1" vertex="1">
          <mxGeometry x="530" y="120" width="200" height="140" as="geometry" />
        </mxCell>
        <mxCell id="tTnqDCIk3qNYDCSJdOzN-2" value="- id : String&lt;br&gt;- name : String&lt;br&gt;- age : int&lt;br&gt;- telephone : String&lt;br&gt;- address : Address" style="text;strokeColor=none;fillColor=none;align=left;verticalAlign=top;spacingLeft=4;spacingRight=4;overflow=hidden;rotatable=0;points=[[0,0.5],[1,0.5]];portConstraint=eastwest;whiteSpace=wrap;html=1;" parent="tTnqDCIk3qNYDCSJdOzN-1" vertex="1">
          <mxGeometry y="26" width="200" height="84" as="geometry" />
        </mxCell>
        <mxCell id="tTnqDCIk3qNYDCSJdOzN-3" value="" style="line;strokeWidth=1;fillColor=none;align=left;verticalAlign=middle;spacingTop=-1;spacingLeft=3;spacingRight=3;rotatable=0;labelPosition=right;points=[];portConstraint=eastwest;strokeColor=inherit;" parent="tTnqDCIk3qNYDCSJdOzN-1" vertex="1">
          <mxGeometry y="110" width="200" height="8" as="geometry" />
        </mxCell>
        <mxCell id="tTnqDCIk3qNYDCSJdOzN-4" value="+ getters &amp;amp; setters" style="text;strokeColor=none;fillColor=none;align=left;verticalAlign=top;spacingLeft=4;spacingRight=4;overflow=hidden;rotatable=0;points=[[0,0.5],[1,0.5]];portConstraint=eastwest;whiteSpace=wrap;html=1;" parent="tTnqDCIk3qNYDCSJdOzN-1" vertex="1">
          <mxGeometry y="118" width="200" height="22" as="geometry" />
        </mxCell>
        <mxCell id="rfitQcDO4bF0L4ao5TUQ-1" value="PointOfSale" style="swimlane;fontStyle=1;align=center;verticalAlign=top;childLayout=stackLayout;horizontal=1;startSize=26;horizontalStack=0;resizeParent=1;resizeParentMax=0;resizeLast=0;collapsible=1;marginBottom=0;whiteSpace=wrap;html=1;" parent="1" vertex="1">
          <mxGeometry x="1170" y="345" width="160" height="120" as="geometry" />
        </mxCell>
        <mxCell id="rfitQcDO4bF0L4ao5TUQ-2" value="- ID: String&lt;br&gt;- cards[]: Card" style="text;strokeColor=none;fillColor=none;align=left;verticalAlign=top;spacingLeft=4;spacingRight=4;overflow=hidden;rotatable=0;points=[[0,0.5],[1,0.5]];portConstraint=eastwest;whiteSpace=wrap;html=1;" parent="rfitQcDO4bF0L4ao5TUQ-1" vertex="1">
          <mxGeometry y="26" width="160" height="44" as="geometry" />
        </mxCell>
        <mxCell id="rfitQcDO4bF0L4ao5TUQ-3" value="" style="line;strokeWidth=1;fillColor=none;align=left;verticalAlign=middle;spacingTop=-1;spacingLeft=3;spacingRight=3;rotatable=0;labelPosition=right;points=[];portConstraint=eastwest;strokeColor=inherit;" parent="rfitQcDO4bF0L4ao5TUQ-1" vertex="1">
          <mxGeometry y="70" width="160" height="8" as="geometry" />
        </mxCell>
        <mxCell id="rfitQcDO4bF0L4ao5TUQ-4" value="+ getters &amp;amp;&amp;amp; setters()&lt;br&gt;+ displayBill()" style="text;strokeColor=none;fillColor=none;align=left;verticalAlign=top;spacingLeft=4;spacingRight=4;overflow=hidden;rotatable=0;points=[[0,0.5],[1,0.5]];portConstraint=eastwest;whiteSpace=wrap;html=1;" parent="rfitQcDO4bF0L4ao5TUQ-1" vertex="1">
          <mxGeometry y="78" width="160" height="42" as="geometry" />
        </mxCell>
        <mxCell id="rfitQcDO4bF0L4ao5TUQ-7" style="edgeStyle=orthogonalEdgeStyle;rounded=0;orthogonalLoop=1;jettySize=auto;html=1;endArrow=diamondThin;endFill=1;entryX=0.467;entryY=0.981;entryDx=0;entryDy=0;entryPerimeter=0;exitX=0.474;exitY=-0.003;exitDx=0;exitDy=0;exitPerimeter=0;" parent="1" source="KZc5VNdmo1UYbILFe8fp-30" target="rfitQcDO4bF0L4ao5TUQ-4" edge="1">
          <mxGeometry relative="1" as="geometry">
            <Array as="points">
              <mxPoint x="1245" y="680" />
              <mxPoint x="1245" y="510" />
            </Array>
            <mxPoint x="1120" y="610" as="sourcePoint" />
          </mxGeometry>
        </mxCell>
        <mxCell id="Hq8zr15hO0KJsehI7xJ2-2" value="1" style="endArrow=open;html=1;endSize=12;startArrow=diamondThin;startSize=14;startFill=0;edgeStyle=orthogonalEdgeStyle;align=left;verticalAlign=bottom;rounded=0;exitX=0.999;exitY=0.414;exitDx=0;exitDy=0;exitPerimeter=0;entryX=-0.005;entryY=0.385;entryDx=0;entryDy=0;entryPerimeter=0;" parent="1" source="tTnqDCIk3qNYDCSJdOzN-2" target="KZc5VNdmo1UYbILFe8fp-15" edge="1">
          <mxGeometry x="-1" y="3" relative="1" as="geometry">
            <mxPoint x="730" y="160" as="sourcePoint" />
            <mxPoint x="790" y="130" as="targetPoint" />
            <Array as="points">
              <mxPoint x="770" y="181" />
              <mxPoint x="770" y="131" />
            </Array>
          </mxGeometry>
        </mxCell>
        <mxCell id="Hq8zr15hO0KJsehI7xJ2-7" value="1.....*" style="endArrow=open;html=1;endSize=12;startArrow=diamondThin;startSize=14;startFill=0;edgeStyle=orthogonalEdgeStyle;align=left;verticalAlign=bottom;rounded=0;exitX=-0.011;exitY=0.425;exitDx=0;exitDy=0;exitPerimeter=0;entryX=1;entryY=0.5;entryDx=0;entryDy=0;" parent="1" source="KZc5VNdmo1UYbILFe8fp-31" target="KZc5VNdmo1UYbILFe8fp-2" edge="1">
          <mxGeometry x="-0.6217" y="-6" relative="1" as="geometry">
            <mxPoint x="890" y="840" as="sourcePoint" />
            <mxPoint x="1090" y="870" as="targetPoint" />
            <Array as="points">
              <mxPoint x="1120" y="746" />
              <mxPoint x="1120" y="748" />
            </Array>
            <mxPoint as="offset" />
          </mxGeometry>
        </mxCell>
        <mxCell id="AF1ABx0VTaV4YIEbs9uG-3" value="Card" style="swimlane;fontStyle=1;align=center;verticalAlign=top;childLayout=stackLayout;horizontal=1;startSize=26;horizontalStack=0;resizeParent=1;resizeParentMax=0;resizeLast=0;collapsible=1;marginBottom=0;whiteSpace=wrap;html=1;" parent="1" vertex="1">
          <mxGeometry x="930" y="340" width="160" height="130" as="geometry" />
        </mxCell>
        <mxCell id="AF1ABx0VTaV4YIEbs9uG-4" value="- code&lt;br&gt;- username&lt;br&gt;- code" style="text;strokeColor=none;fillColor=none;align=left;verticalAlign=top;spacingLeft=4;spacingRight=4;overflow=hidden;rotatable=0;points=[[0,0.5],[1,0.5]];portConstraint=eastwest;whiteSpace=wrap;html=1;" parent="AF1ABx0VTaV4YIEbs9uG-3" vertex="1">
          <mxGeometry y="26" width="160" height="54" as="geometry" />
        </mxCell>
        <mxCell id="AF1ABx0VTaV4YIEbs9uG-5" value="" style="line;strokeWidth=1;fillColor=none;align=left;verticalAlign=middle;spacingTop=-1;spacingLeft=3;spacingRight=3;rotatable=0;labelPosition=right;points=[];portConstraint=eastwest;strokeColor=inherit;" parent="AF1ABx0VTaV4YIEbs9uG-3" vertex="1">
          <mxGeometry y="80" width="160" height="10" as="geometry" />
        </mxCell>
        <mxCell id="AF1ABx0VTaV4YIEbs9uG-6" value="+ getters &amp;amp;&amp;amp; setters()&lt;br&gt;+ openPoint()" style="text;strokeColor=none;fillColor=none;align=left;verticalAlign=top;spacingLeft=4;spacingRight=4;overflow=hidden;rotatable=0;points=[[0,0.5],[1,0.5]];portConstraint=eastwest;whiteSpace=wrap;html=1;" parent="AF1ABx0VTaV4YIEbs9uG-3" vertex="1">
          <mxGeometry y="90" width="160" height="40" as="geometry" />
        </mxCell>
        <mxCell id="AF1ABx0VTaV4YIEbs9uG-7" style="edgeStyle=orthogonalEdgeStyle;rounded=0;orthogonalLoop=1;jettySize=auto;html=1;endArrow=diamondThin;endFill=1;exitX=0;exitY=0.5;exitDx=0;exitDy=0;" parent="1" source="AF1ABx0VTaV4YIEbs9uG-4" target="KZc5VNdmo1UYbILFe8fp-34" edge="1">
          <mxGeometry relative="1" as="geometry">
            <mxPoint x="920" y="400" as="sourcePoint" />
            <Array as="points">
              <mxPoint x="850" y="393" />
              <mxPoint x="850" y="393" />
            </Array>
          </mxGeometry>
        </mxCell>
        <mxCell id="AF1ABx0VTaV4YIEbs9uG-8" style="edgeStyle=orthogonalEdgeStyle;rounded=0;orthogonalLoop=1;jettySize=auto;html=1;exitX=1;exitY=0.704;exitDx=0;exitDy=0;exitPerimeter=0;endArrow=diamondThin;endFill=0;" parent="1" source="AF1ABx0VTaV4YIEbs9uG-4" target="rfitQcDO4bF0L4ao5TUQ-1" edge="1">
          <mxGeometry relative="1" as="geometry" />
        </mxCell>
      </root>
    </mxGraphModel>
  </diagram>
</mxfile>
